<mxfile host="app.diagrams.net" modified="2023-06-25T22:32:43.229Z" agent="Mozilla/5.0 (Windows NT 10.0; Win64; x64) AppleWebKit/537.36 (KHTML, like Gecko) Chrome/114.0.0.0 Safari/537.36" etag="Ogzsjug3FQKv8bugW9KM" version="21.3.5" type="device">
  <diagram name="PÃ¡gina-1" id="_B_7Tgoe19x5gq8TU8ye">
    <mxGraphModel dx="1674" dy="764" grid="1" gridSize="10" guides="1" tooltips="1" connect="1" arrows="1" fold="1" page="1" pageScale="1" pageWidth="827" pageHeight="1169" math="0" shadow="0">
      <root>
        <mxCell id="0" />
        <mxCell id="1" parent="0" />
        <mxCell id="R6-IvVSr5zqjlBQidt5z-8" style="edgeStyle=orthogonalEdgeStyle;rounded=0;orthogonalLoop=1;jettySize=auto;html=1;entryX=0.5;entryY=0;entryDx=0;entryDy=0;" edge="1" parent="1" source="R6-IvVSr5zqjlBQidt5z-1" target="R6-IvVSr5zqjlBQidt5z-2">
          <mxGeometry relative="1" as="geometry" />
        </mxCell>
        <mxCell id="R6-IvVSr5zqjlBQidt5z-1" value="Inicio" style="rounded=1;whiteSpace=wrap;html=1;" vertex="1" parent="1">
          <mxGeometry x="340" y="80" width="120" height="60" as="geometry" />
        </mxCell>
        <mxCell id="R6-IvVSr5zqjlBQidt5z-9" style="edgeStyle=orthogonalEdgeStyle;rounded=0;orthogonalLoop=1;jettySize=auto;html=1;entryX=0.5;entryY=0;entryDx=0;entryDy=0;" edge="1" parent="1" source="R6-IvVSr5zqjlBQidt5z-2" target="R6-IvVSr5zqjlBQidt5z-4">
          <mxGeometry relative="1" as="geometry" />
        </mxCell>
        <mxCell id="R6-IvVSr5zqjlBQidt5z-2" value="Leer identificacion, nombre, apellido1, apellido2, puestoEmpleado" style="shape=parallelogram;perimeter=parallelogramPerimeter;whiteSpace=wrap;html=1;fixedSize=1;" vertex="1" parent="1">
          <mxGeometry x="305" y="190" width="190" height="90" as="geometry" />
        </mxCell>
        <mxCell id="R6-IvVSr5zqjlBQidt5z-10" style="edgeStyle=orthogonalEdgeStyle;rounded=0;orthogonalLoop=1;jettySize=auto;html=1;entryX=0.463;entryY=-0.025;entryDx=0;entryDy=0;entryPerimeter=0;" edge="1" parent="1" source="R6-IvVSr5zqjlBQidt5z-4" target="R6-IvVSr5zqjlBQidt5z-5">
          <mxGeometry relative="1" as="geometry" />
        </mxCell>
        <mxCell id="R6-IvVSr5zqjlBQidt5z-4" value="Crear objeto, Empleado" style="rounded=0;whiteSpace=wrap;html=1;" vertex="1" parent="1">
          <mxGeometry x="325" y="330" width="150" height="70" as="geometry" />
        </mxCell>
        <mxCell id="R6-IvVSr5zqjlBQidt5z-11" style="edgeStyle=orthogonalEdgeStyle;rounded=0;orthogonalLoop=1;jettySize=auto;html=1;entryX=0.5;entryY=0;entryDx=0;entryDy=0;" edge="1" parent="1" source="R6-IvVSr5zqjlBQidt5z-5" target="R6-IvVSr5zqjlBQidt5z-6">
          <mxGeometry relative="1" as="geometry" />
        </mxCell>
        <mxCell id="R6-IvVSr5zqjlBQidt5z-5" value="Asignar identificacion, nombre, apellido1, apellido2, puestoEmpleado al objeto Empleado" style="shape=process;whiteSpace=wrap;html=1;backgroundOutline=1;" vertex="1" parent="1">
          <mxGeometry x="325" y="450" width="160" height="80" as="geometry" />
        </mxCell>
        <mxCell id="R6-IvVSr5zqjlBQidt5z-12" style="edgeStyle=orthogonalEdgeStyle;rounded=0;orthogonalLoop=1;jettySize=auto;html=1;" edge="1" parent="1" source="R6-IvVSr5zqjlBQidt5z-6" target="R6-IvVSr5zqjlBQidt5z-7">
          <mxGeometry relative="1" as="geometry" />
        </mxCell>
        <mxCell id="R6-IvVSr5zqjlBQidt5z-6" value="Dar Saludo" style="rounded=0;whiteSpace=wrap;html=1;" vertex="1" parent="1">
          <mxGeometry x="345" y="584.5" width="120" height="60" as="geometry" />
        </mxCell>
        <mxCell id="R6-IvVSr5zqjlBQidt5z-7" value="Fin" style="rounded=1;whiteSpace=wrap;html=1;" vertex="1" parent="1">
          <mxGeometry x="345" y="700" width="120" height="60" as="geometry" />
        </mxCell>
      </root>
    </mxGraphModel>
  </diagram>
</mxfile>
